<?xml version="1.0" encoding="utf-8"?>
<!-- Generator: Adobe Illustrator 23.0.1, SVG Export Plug-In . SVG Version: 6.00 Build 0)  -->
<svg version="1.1"
	 id="svg1" inkscape:version="1.3.2 (091e20ef0f, 2023-11-25, custom)" sodipodi:docname="logo-dark.svg" xmlns:inkscape="http://www.inkscape.org/namespaces/inkscape" xmlns:sodipodi="http://sodipodi.sourceforge.net/DTD/sodipodi-0.dtd" xmlns:svg="http://www.w3.org/2000/svg"
	 xmlns="http://www.w3.org/2000/svg" xmlns:xlink="http://www.w3.org/1999/xlink" x="0px" y="0px" viewBox="0 0 153.1 153.1"
	 style="enable-background:new 0 0 153.1 153.1;" xml:space="preserve">
<style type="text/css">
	.st0{fill:#FFFFFF;}
	.st1{fill:url(#SVGID_1_);}
</style>
<sodipodi:namedview  bordercolor="#000000" borderopacity="0.25" id="namedview1" inkscape:current-layer="layer1" inkscape:cx="-12.741388" inkscape:cy="51.437455" inkscape:deskcolor="#d1d1d1" inkscape:document-units="mm" inkscape:pagecheckerboard="0" inkscape:pageopacity="0.0" inkscape:showpageshadow="2" inkscape:window-height="1054" inkscape:window-maximized="1" inkscape:window-width="1920" inkscape:window-x="1920" inkscape:window-y="0" inkscape:zoom="1.0595392" pagecolor="#ffffff" showgrid="false">
	</sodipodi:namedview>
<g>
	<circle class="st0" cx="76.7" cy="76.5" r="70.8"/>
	
		<linearGradient id="SVGID_1_" gradientUnits="userSpaceOnUse" x1="74.9221" y1="2514.0833" x2="78.3779" y2="2383.6147" gradientTransform="matrix(1 0 0 1 0 -2372.2991)">
		<stop  offset="0" style="stop-color:#54AEFF"/>
		<stop  offset="1" style="stop-color:#F421FF"/>
	</linearGradient>
	<path class="st1" d="M76.7,11.3c-36.1,0-65.3,29.2-65.3,65.3s29.2,65.3,65.3,65.3s65.3-29.2,65.3-65.3S112.7,11.3,76.7,11.3z
		 M121.3,75.2h-11.7c-1,0-1.9-0.5-2.4-1.4L78.7,91v14.4l24.7-15.1v-5.2c0-1.5,1.4-2.9,2.9-2.9H118c1.5,0,2.9,1.4,2.9,2.9v11.7
		c0,1.5-1.4,2.9-2.9,2.9h-11.7c-1.5,0-2.9-1.4-2.9-2.9v-1.5l-24.7,15.1v3.6h3.9c1.5,0,2.9,1.4,2.9,2.9v11.7c0,1.5-1.4,2.9-2.9,2.9
		H71c-1.5,0-2.9-1.4-2.9-2.9v-11.7c0-1.5,1.4-2.9,2.9-2.9h3.9v-3.6L50.2,95.3v1.5c0,1.5-1.4,2.9-2.9,2.9h-12c-1.5,0-2.9-1.4-2.9-2.9
		V85.1c0-1.5,1.4-2.9,2.9-2.9h11.7c1.5,0,2.9,1.4,2.9,2.9v5.2l24.7,15.1V91L46.1,73.8c-0.5,0.9-1.4,1.4-2.4,1.4H32
		c-1.5,0-2.9-1.4-2.9-2.9V60.6c0-1.5,1.4-2.9,2.9-2.9h11.7c1.5,0,2.9,1.4,2.9,2.9v8.6L57.8,76V62h-3.9c-1.5,0-2.9-1.4-2.9-2.9V47.4
		c0-1.5,1.4-2.9,2.9-2.9h11.7c1.5,0,2.9,1.4,2.9,2.9V59c0,1.5-1.4,2.9-2.9,2.9h-3.9v16.7l12.5,7.6V38.9h-3.9c-1.5,0-2.9-1.4-2.9-2.9
		V24.7c0-1.5,1.4-2.9,2.9-2.9h11.7c1.5,0,2.9,1.4,2.9,2.9v11.7c0,1.5-1.4,2.9-2.9,2.9h-3.9v47.2L90.4,79V62.3h-3.9
		c-1.5,0-2.9-1.4-2.9-2.9V47.7c0-1.5,1.4-2.9,2.9-2.9h11.7c1.5,0,2.9,1.4,2.9,2.9v11.7c0,1.5-1.4,2.9-2.9,2.9h-3.9v14.1l11.2-6.9
		v-8.6c0-1.5,1.4-2.9,2.9-2.9h11.7c1.5,0,2.9,1.4,2.9,2.9v11.7C123.9,74,122.7,75.2,121.3,75.2z"/>
</g>
</svg>
