<?xml version="1.0" encoding="utf-8"?>
<!-- Generator: Adobe Illustrator 23.0.1, SVG Export Plug-In . SVG Version: 6.00 Build 0)  -->
<svg version="1.1"
	 id="svg1" inkscape:version="1.3.2 (091e20ef0f, 2023-11-25, custom)" sodipodi:docname="logo-light.svg" xmlns:inkscape="http://www.inkscape.org/namespaces/inkscape" xmlns:sodipodi="http://sodipodi.sourceforge.net/DTD/sodipodi-0.dtd" xmlns:svg="http://www.w3.org/2000/svg"
	 xmlns="http://www.w3.org/2000/svg" xmlns:xlink="http://www.w3.org/1999/xlink" x="0px" y="0px" viewBox="0 0 153.1 153.1"
	 style="enable-background:new 0 0 153.1 153.1;" xml:space="preserve">
<style type="text/css">
	.st0{fill:#FFFFFF;}
</style>
<sodipodi:namedview  bordercolor="#000000" borderopacity="0.25" id="namedview1" inkscape:current-layer="layer1" inkscape:cx="-12.741388" inkscape:cy="51.437455" inkscape:deskcolor="#d1d1d1" inkscape:document-units="mm" inkscape:pagecheckerboard="0" inkscape:pageopacity="0.0" inkscape:showpageshadow="2" inkscape:window-height="1054" inkscape:window-maximized="1" inkscape:window-width="1920" inkscape:window-x="1920" inkscape:window-y="0" inkscape:zoom="1.0595392" pagecolor="#ffffff" showgrid="false">
	</sodipodi:namedview>
<path class="st0" d="M76.5,5.7C37.4,5.7,5.7,37.4,5.7,76.5s31.7,70.9,70.9,70.9s70.9-31.7,70.9-70.9S115.7,5.7,76.5,5.7z M125,75.1
	h-12.8c-1.1,0-2-0.6-2.6-1.4L78.8,92.4V108l26.9-16.4v-5.7c0-1.7,1.4-3.1,3.1-3.1h12.8c1.7,0,3.1,1.4,3.1,3.1v12.8
	c0,1.7-1.4,3.1-3.1,3.1h-12.8c-1.7,0-3.1-1.4-3.1-3.1v-1.7l-26.9,16.4v4h4.3c1.7,0,3.1,1.4,3.1,3.1v12.8c0,1.7-1.4,3.1-3.1,3.1H70.3
	c-1.7,0-3.1-1.4-3.1-3.1v-12.8c0-1.7,1.4-3.1,3.1-3.1h4.3v-4L47.6,96.9v1.7c0,1.7-1.4,3.1-3.1,3.1h-13c-1.7,0-3.1-1.4-3.1-3.1V85.9
	c0-1.7,1.4-3.1,3.1-3.1h12.8c1.7,0,3.1,1.4,3.1,3.1v5.7L74.3,108V92.4L43.4,73.7c-0.6,0.9-1.4,1.4-2.6,1.4H28.1
	c-1.7,0-3.1-1.4-3.1-3.1V59.2c0-1.7,1.4-3.1,3.1-3.1h12.8c1.7,0,3.1,1.4,3.1,3.1v9.4L56.1,76V60.7h-4.3c-1.7,0-3.1-1.4-3.1-3.1V44.8
	c0-1.7,1.4-3.1,3.1-3.1h12.8c1.7,0,3.1,1.4,3.1,3.1v12.8c0,1.7-1.4,3.1-3.1,3.1h-4.3v18.1L74,87V35.7h-4.3c-1.7,0-3.1-1.4-3.1-3.1
	V20.1c0-1.7,1.4-3.1,3.1-3.1h12.8c1.7,0,3.1,1.4,3.1,3.1v12.8c0,1.7-1.4,3.1-3.1,3.1h-4.3v51.3l13.6-8.2V60.9h-4.3
	c-1.7,0-3.1-1.4-3.1-3.1V45.1c0-1.7,1.4-3.1,3.1-3.1h12.8c1.7,0,3.1,1.4,3.1,3.1v12.8c0,1.7-1.4,3.1-3.1,3.1h-4.3v15.3l12.2-7.4
	v-9.4c0-1.7,1.4-3.1,3.1-3.1h12.8c1.7,0,3.1,1.4,3.1,3.1v12.8C127.8,73.7,126.4,75.1,125,75.1z"/>
</svg>
